<svg width="16" height="16" viewBox="0 0 16 16" fill="none" xmlns="http://www.w3.org/2000/svg">
<path d="M7.99998 1.33301C11.68 1.33301 14.6666 4.31967 14.6666 7.99967C14.6666 11.6797 11.68 14.6663 7.99998 14.6663C4.31998 14.6663 1.33331 11.6797 1.33331 7.99967C1.33331 4.31967 4.31998 1.33301 7.99998 1.33301ZM7.99998 10.6663C9.47531 10.6663 10.6666 9.47501 10.6666 7.99967C10.6666 6.52434 9.47531 5.33301 7.99998 5.33301C6.52465 5.33301 5.33331 6.52434 5.33331 7.99967C5.33331 9.47501 6.52465 10.6663 7.99998 10.6663ZM7.99998 7.33301C8.36665 7.33301 8.66665 7.63301 8.66665 7.99967C8.66665 8.36634 8.36665 8.66634 7.99998 8.66634C7.63331 8.66634 7.33331 8.36634 7.33331 7.99967C7.33331 7.63301 7.63331 7.33301 7.99998 7.33301Z" fill="#8C8993"/>
</svg>
