<svg width="16" height="16" viewBox="0 0 16 16" fill="none" xmlns="http://www.w3.org/2000/svg">
<path d="M8.62755 2.16699V3.95866H1.41187V2.16699H8.62755ZM8.62755 5.70866V7.50033H1.41187V5.70866H8.62755ZM1.41187 11.042V9.29199H5.29422V11.042H1.41187ZM10.3138 2.16699H14.4707V3.95866H11.9609V11.9587C11.9609 12.6809 11.7191 13.3059 11.2354 13.8337C10.7517 14.3614 10.1635 14.6253 9.47069 14.6253C8.77788 14.6253 8.18311 14.3614 7.68638 13.8337C7.18964 13.3059 6.94128 12.6739 6.94128 11.9378C6.94128 11.2017 7.18964 10.5767 7.68638 10.0628C8.18311 9.54894 8.77134 9.29199 9.45108 9.29199C9.73866 9.29199 10.0262 9.34755 10.3138 9.45866V2.16699Z" fill="#FFFFFF"/>
</svg>
