<svg width="57" height="46" viewBox="0 0 57 46" fill="none" xmlns="http://www.w3.org/2000/svg">
    <path fill-rule="evenodd" clip-rule="evenodd" d="M0 45.94V10.863C3.49 9.56 8.1 8.769 13.154 8.769c5.053 0 9.663.792 13.154 2.094 3.49-1.302 8.1-2.094 13.154-2.094 5.053 0 9.663.792 13.153 2.094V45.94c-3.49-1.302-8.1-2.094-13.154-2.094-5.053 0-9.663.792-13.153 2.094-3.491-1.302-8.1-2.094-13.154-2.094S3.49 44.638 0 45.94z" fill="#BBB"/>
    <path d="M30.692 2.093V37.17c3.491-1.302 8.1-2.093 13.154-2.093S53.51 35.868 57 37.17V2.093C53.51.792 48.9 0 43.846 0c-5.053 0-9.663.792-13.154 2.093z" fill="#fff"/>
    <path d="M4.385 2.093V37.17c3.49-1.302 8.1-2.093 13.153-2.093 5.054 0 9.664.791 13.154 2.093V2.093C27.202.792 22.592 0 17.538 0 12.485 0 7.875.792 4.385 2.093z" fill="#F7F7F7"/>
</svg>
