<svg width="418" height="415" viewBox="0 0 418 415" fill="none" xmlns="http://www.w3.org/2000/svg">
    <path d="M288.283 8h-18.566A3.723 3.723 0 0 0 266 11.73v74.54c0 2.06 1.664 3.73 3.717 3.73h18.566A3.723 3.723 0 0 0 292 86.27V11.73c0-2.06-1.664-3.73-3.717-3.73z" fill="#E3B335"/>
    <path d="M288.283 0h-18.566A3.723 3.723 0 0 0 266 3.73v74.54c0 2.06 1.664 3.73 3.717 3.73h18.566A3.723 3.723 0 0 0 292 78.27V3.73c0-2.06-1.664-3.73-3.717-3.73z" fill="#FFD056"/>
    <path d="M257.14 39h-19.28c-2.132 0-3.86 1.693-3.86 3.78v43.44c0 2.088 1.728 3.78 3.86 3.78h19.28c2.132 0 3.86-1.692 3.86-3.78V42.78c0-2.087-1.728-3.78-3.86-3.78z" fill="#E25374"/>
    <path d="M257.14 31h-19.28c-2.132 0-3.86 1.693-3.86 3.78v43.44c0 2.088 1.728 3.78 3.86 3.78h19.28c2.132 0 3.86-1.692 3.86-3.78V34.78c0-2.087-1.728-3.78-3.86-3.78z" fill="#FF6588"/>
    <path d="M225.426 25h-17.852C205.6 25 204 26.664 204 28.717v57.566c0 2.053 1.6 3.717 3.574 3.717h17.852C227.4 90 229 88.336 229 86.283V28.717c0-2.053-1.6-3.717-3.574-3.717z" fill="#B65FDF"/>
    <path d="M225.426 17h-17.852C205.6 17 204 18.664 204 20.717v57.566c0 2.053 1.6 3.717 3.574 3.717h17.852C227.4 82 229 80.336 229 78.283V20.717c0-2.053-1.6-3.717-3.574-3.717z" fill="#D077FA"/>
    <path d="M195.283 46h-18.566c-2.053 0-3.717 1.714-3.717 3.828v36.344c0 2.114 1.664 3.828 3.717 3.828h18.566c2.053 0 3.717-1.714 3.717-3.828V49.828c0-2.114-1.664-3.828-3.717-3.828z" fill="#28BF9B"/>
    <path d="M195.283 39h-18.566c-2.053 0-3.717 1.675-3.717 3.741V78.26c0 2.066 1.664 3.741 3.717 3.741h18.566c2.053 0 3.717-1.675 3.717-3.741V42.74c0-2.066-1.664-3.741-3.717-3.741z" fill="#2FDAB1"/>
    <path d="M126.682 104.747c1.44.831 1.445 2.177 0 3.008l-46.053 26.763a5.72 5.72 0 0 1-5.196 0l-46.35-26.763c-1.439-.831-1.45-2.177 0-3.008L75.158 77.99a5.715 5.715 0 0 1 5.195 0l46.329 26.757z" fill="#C4C4C4" opacity=".5"/>
    <path d="M125.927 90.457c1.428.835 1.433 2.185 0 3.02l-45.713 26.866a5.621 5.621 0 0 1-5.157 0L29.075 93.477c-1.428-.835-1.439-2.186 0-3.02l45.708-26.86a5.621 5.621 0 0 1 5.157 0l45.987 26.86z" fill="#878787"/>
    <path d="M126.682 75.366c1.44.832 1.445 2.177 0 3.008l-46.053 26.763a5.72 5.72 0 0 1-5.196 0l-46.35-26.763c-1.439-.83-1.45-2.176 0-3.008l46.075-26.742a5.715 5.715 0 0 1 5.195 0l46.329 26.742z" fill="#D077FA"/>
    <path opacity=".05" d="M108 350h172v65H108v-65z" fill="#494949"/>
    <path d="M284 346H112v65h172v-65z" fill="#DBDBDB"/>
    <path d="M280.178 395.706h-11.467v11.47h11.467v-11.47zM264.889 395.706h-11.467v11.47h11.467v-11.47zM249.6 395.706h-11.467v11.47H249.6v-11.47zM234.311 395.706h-11.467v11.47h11.467v-11.47zM219.022 395.706h-11.466v11.47h11.466v-11.47zM203.733 395.706h-11.466v11.47h11.466v-11.47zM188.444 395.706h-11.466v11.47h11.466v-11.47zM173.156 395.706h-11.467v11.47h11.467v-11.47zM157.867 395.706H146.4v11.47h11.467v-11.47zM142.578 395.706h-11.467v11.47h11.467v-11.47zM127.289 395.706h-11.467v11.47h11.467v-11.47zM280.178 380.412h-11.467v11.47h11.467v-11.47zM264.889 380.412h-11.467v11.47h11.467v-11.47zM249.6 380.412h-11.467v11.47H249.6v-11.47zM234.311 380.412h-11.467v11.47h11.467v-11.47zM219.022 380.412h-11.466v11.47h11.466v-11.47zM203.733 380.412h-11.466v11.47h11.466v-11.47zM188.444 380.412h-11.466v11.47h11.466v-11.47zM173.156 380.412h-11.467v11.47h11.467v-11.47zM157.867 380.412H146.4v11.47h11.467v-11.47zM142.578 380.412h-11.467v11.47h11.467v-11.47zM127.289 380.412h-11.467v11.47h11.467v-11.47zM280.178 365.118h-11.467v11.47h11.467v-11.47zM264.889 365.118h-11.467v11.47h11.467v-11.47zM249.6 365.118h-11.467v11.47H249.6v-11.47zM234.311 365.118h-11.467v11.47h11.467v-11.47zM219.022 365.118h-11.466v11.47h11.466v-11.47zM203.733 365.118h-11.466v11.47h11.466v-11.47zM188.444 365.118h-11.466v11.47h11.466v-11.47zM173.156 365.118h-11.467v11.47h11.467v-11.47zM157.867 365.118H146.4v11.47h11.467v-11.47zM142.578 365.118h-11.467v11.47h11.467v-11.47zM127.289 365.118h-11.467v11.47h11.467v-11.47zM280.178 349.823h-11.467v11.471h11.467v-11.471zM264.889 349.823h-11.467v11.471h11.467v-11.471zM249.6 349.823h-11.467v11.471H249.6v-11.471zM234.311 349.823h-11.467v11.471h11.467v-11.471zM219.022 349.823h-11.466v11.471h11.466v-11.471zM203.733 349.823h-11.466v11.471h11.466v-11.471zM188.444 349.823h-11.466v11.471h11.466v-11.471zM173.156 349.823h-11.467v11.471h11.467v-11.471zM157.867 349.823H146.4v11.471h11.467v-11.471zM142.578 349.823h-11.467v11.471h11.467v-11.471zM127.289 349.823h-11.467v11.471h11.467v-11.471z" fill="#fff"/>
    <path d="M234.311 395.706h-72.622v11.47h72.622v-11.47z" fill="#fff"/>
    <path opacity=".05" d="M357.999 311.161a23.088 23.088 0 0 0-.16-2.555 23.185 23.185 0 0 0-6.76-13.822A23.594 23.594 0 0 0 334.498 288h-.047a23.61 23.61 0 0 0-16.601 6.848 23.162 23.162 0 0 0-6.85 16.456l.033 46.354H311V357.942h.002c.025 1.992.32 3.942.85 5.812 2.152 7.694 8.342 14.036 16.226 16.328a23.01 23.01 0 0 0 6.442.918h.101c3.051.001 6.074-.59 8.896-1.74a23.402 23.402 0 0 0 7.619-5.022 23.147 23.147 0 0 0 5.087-7.535 22.962 22.962 0 0 0 1.777-8.892V311l-.001.161z" fill="#494949"/>
    <path d="M362.993 305.46V305.227a23.162 23.162 0 0 0-6.914-16.443A23.612 23.612 0 0 0 339.451 282a23.61 23.61 0 0 0-16.601 6.848 23.162 23.162 0 0 0-6.85 16.47v46.435h.156v.058h-.123c0 12.369 10.519 23.189 23.503 23.189 3.08.012 6.133-.58 8.981-1.74a23.402 23.402 0 0 0 7.619-5.022 23.147 23.147 0 0 0 5.087-7.535 22.962 22.962 0 0 0 1.777-8.892V305.46h-.007z" fill="#E1E1E2"/>
    <path fill-rule="evenodd" clip-rule="evenodd" d="M319.807 352h-3.657l.006-.058H316v-46.561a23.252 23.252 0 0 1 6.851-16.514A23.581 23.581 0 0 1 339.454 282a23.586 23.586 0 0 1 16.631 6.803A23.255 23.255 0 0 1 363 305.29V305.523a46.489 46.489 0 0 1-12.458 31.613c-8.003 8.61-18.974 13.916-30.735 14.864z" fill="#F9F9F9"/>
    <path d="M316.072 351.658h5.674a47.359 47.359 0 0 0 29.445-15.59A47.028 47.028 0 0 0 363 305v46.658a23.231 23.231 0 0 1-1.778 8.951 23.305 23.305 0 0 1-5.091 7.584A23.448 23.448 0 0 1 339.52 375c-12.993 0-23.52-10.891-23.52-23.342h.072z" fill="#E1E1E2"/>
    <path fill-rule="evenodd" clip-rule="evenodd" d="M417.804 68.444a32.389 32.389 0 0 1 0 7.111l-8.065-.017a24.17 24.17 0 0 1-1.398 5.238l6.98 4.03a32.17 32.17 0 0 1-3.555 6.157l-6.969-4.018a24.453 24.453 0 0 1-3.834 3.834l4.035 6.987a32.134 32.134 0 0 1-6.157 3.555l-4.035-6.98a24.047 24.047 0 0 1-5.233 1.398v8.065a32.388 32.388 0 0 1-7.111 0v-8.065a24.19 24.19 0 0 1-5.238-1.398l-4.03 6.98a32.195 32.195 0 0 1-6.157-3.555l4.018-6.969a24.454 24.454 0 0 1-3.834-3.834l-6.987 4.036a31.838 31.838 0 0 1-3.555-6.157l6.98-4.03a24.166 24.166 0 0 1-1.398-5.239h-8.065a32.389 32.389 0 0 1 0-7.11h8.065a24.17 24.17 0 0 1 1.398-5.24l-6.98-4.029a31.835 31.835 0 0 1 3.555-6.157l6.969 4.018a24.458 24.458 0 0 1 3.834-3.834l-4.036-6.987a31.922 31.922 0 0 1 6.157-3.556l4.03 6.981a24.199 24.199 0 0 1 5.239-1.398v-8.065c2.363-.261 4.748-.261 7.111 0v8.065a24.19 24.19 0 0 1 5.238 1.398l4.03-6.98a31.892 31.892 0 0 1 6.157 3.555l-4.018 6.987a24.458 24.458 0 0 1 3.834 3.834l6.987-4.036a32.17 32.17 0 0 1 3.555 6.157l-6.98 4.03a24.17 24.17 0 0 1 1.398 5.238h8.065zm-26.991 9.396a7.563 7.563 0 0 0 2.61-4.397c.101-.475.154-.958.159-1.443a7.573 7.573 0 0 0-12.931-5.356A7.573 7.573 0 0 0 378.432 72c.001.484.049.968.145 1.443A7.563 7.563 0 0 0 386 79.57a7.563 7.563 0 0 0 4.813-1.73z" fill="#DBDBDB"/>
    <path opacity=".1" d="M391.688 150H289.312c-1.939 0-3.799.79-5.17 2.197A7.595 7.595 0 0 0 282 157.5v87.181a7.318 7.318 0 0 0 7.312 7.319h102.376a7.318 7.318 0 0 0 7.312-7.319V157.5c0-1.989-.77-3.897-2.142-5.303a7.218 7.218 0 0 0-5.17-2.197z" fill="#494949"/>
    <path d="M284.562 102H180.437c-1.972 0-3.864.046-5.259.129-1.394.083-2.178.195-2.178.312v5.128c0 .115.784.224 2.178.305 1.395.081 3.287.126 5.259.126h104.125c1.973 0 3.865-.045 5.26-.126 1.394-.081 2.178-.19 2.178-.305v-5.128c0-.117-.784-.229-2.178-.312-1.395-.083-3.287-.129-5.26-.129zM251.75 113h-73.5c-1.392 0-2.728.046-3.712.129-.985.083-1.538.195-1.538.312v5.128c0 .115.553.224 1.538.305.984.081 2.32.126 3.712.126h73.5c1.392 0 2.728-.045 3.712-.126.985-.081 1.538-.19 1.538-.305v-5.128c0-.117-.553-.229-1.538-.312-.984-.083-2.32-.129-3.712-.129zM251.75 124h-73.5c-1.392 0-2.728.046-3.712.129-.985.083-1.538.195-1.538.312v5.128c0 .115.553.224 1.538.305.984.081 2.32.126 3.712.126h73.5c1.392 0 2.728-.045 3.712-.126.985-.081 1.538-.19 1.538-.305v-5.128c0-.117-.553-.229-1.538-.312-.984-.083-2.32-.129-3.712-.129z" fill="#DADADA"/>
    <rect opacity=".05" x="83" y="300" width="168" height="21" rx="10.5" fill="#494949"/>
    <path d="M81 259v19.512a6.485 6.485 0 0 0 1.922 4.589 6.562 6.562 0 0 0 4.62 1.899h156.916a6.563 6.563 0 0 0 4.62-1.899 6.485 6.485 0 0 0 1.922-4.589V259H81z" fill="#FBCA61"/>
    <path d="M193 310h-53l6.629-39h39.742L193 310z" fill="#F9F9F9"/>
    <path d="M199 306h-66v4h66v-4z" fill="#C7C7C7"/>
    <path d="M244.458 159H87.542a6.498 6.498 0 0 0-4.621 1.959A6.754 6.754 0 0 0 81 165.671V259h170v-93.329a6.752 6.752 0 0 0-1.921-4.712 6.5 6.5 0 0 0-4.621-1.959z" fill="#494949"/>
    <path d="M81 259v19.512a6.485 6.485 0 0 0 1.922 4.589 6.562 6.562 0 0 0 4.62 1.899h156.916a6.563 6.563 0 0 0 4.62-1.899 6.485 6.485 0 0 0 1.922-4.589V259H81z" fill="#DBDBDB"/>
    <path d="M166 275a4 4 0 1 0 0-8 4 4 0 0 0 0 8z" fill="#C4C4C4"/>
    <path d="M246 165v87H88v-87h158z" fill="#545454"/>
    <path d="M137 179h-32v5h32v-5z" fill="#FF6588"/>
    <path d="M162 189h-50v5h50v-5z" fill="#FFD056"/>
    <path d="M211 219h-93v5h93v-5z" fill="#878787"/>
    <path d="M156 229h-44v5h44v-5z" fill="#2FDAB1"/>
    <path d="M180 239h-49v5h49v-5z" fill="#878787"/>
    <path d="M126 239h-21v5h21v-5z" fill="#FF6588"/>
    <path d="M223 239h-38v5h38v-5zM226 199h-78v5h78v-5zM205 209h-87v5h87v-5zM193 189h-26v5h26v-5zM143 199h-25v5h25v-5z" fill="#878787"/>
    <path fill-rule="evenodd" clip-rule="evenodd" d="M302.312 137h102.376c1.939 0 3.799.79 5.17 2.197A7.595 7.595 0 0 1 412 144.5v8.5H295v-8.5c0-1.989.77-3.897 2.142-5.303a7.218 7.218 0 0 1 5.17-2.197z" fill="#878787"/>
    <path d="M324.5 149a3.5 3.5 0 1 0 0-7 3.5 3.5 0 0 0 0 7z" fill="#2FDAB1"/>
    <path d="M314.5 149a3.5 3.5 0 1 0 0-7 3.5 3.5 0 0 0 0 7z" fill="#F7D16F"/>
    <path d="M304.5 149a3.5 3.5 0 1 0 0-7 3.5 3.5 0 0 0 0 7z" fill="#FF6588"/>
    <path fill-rule="evenodd" clip-rule="evenodd" d="M297.142 236.856a7.318 7.318 0 0 1-2.142-5.175V153h117v78.681a7.318 7.318 0 0 1-7.312 7.319H302.312a7.306 7.306 0 0 1-5.17-2.144z" fill="#F9F9F9"/>
    <path d="M329 166h-19a2 2 0 0 0-2 2v56a2 2 0 0 0 2 2h19a2 2 0 0 0 2-2v-56a2 2 0 0 0-2-2z" fill="#EBEBEB"/>
    <path d="M397 166h-59a2 2 0 0 0-2 2v17a2 2 0 0 0 2 2h59a2 2 0 0 0 2-2v-17a2 2 0 0 0-2-2z" fill="#FF6588"/>
    <path d="M397 192h-59a2 2 0 0 0-2 2v30a2 2 0 0 0 2 2h59a2 2 0 0 0 2-2v-30a2 2 0 0 0-2-2z" fill="#EBEBEB"/>
    <path d="M38.625 289.92V301H45v-11.08c0-5.01-1.944-9.82-5.41-13.37-3.468-3.551-8.176-5.55-13.09-5.55s-9.622 1.999-13.09 5.55C9.943 280.1 8 284.91 8 289.92V301h6.375v-11.08c0-3.307 1.283-6.474 3.56-8.805 2.276-2.33 5.357-3.635 8.565-3.635 3.208 0 6.29 1.305 8.565 3.635 2.277 2.331 3.56 5.498 3.56 8.805z" fill="#DBDBDB"/>
    <path d="M26.5 317.408a4.33 4.33 0 0 1 2.754 1.004 4.823 4.823 0 0 1 1.6 2.588c.174-.708.193-1.45.055-2.167a4.937 4.937 0 0 0-.847-1.971 4.567 4.567 0 0 0-1.578-1.371A4.276 4.276 0 0 0 26.5 315c-.688 0-1.367.168-1.984.491a4.567 4.567 0 0 0-1.578 1.371 4.937 4.937 0 0 0-.847 1.971 5.086 5.086 0 0 0 .055 2.167 4.823 4.823 0 0 1 1.6-2.588 4.33 4.33 0 0 1 2.754-1.004z" fill="#E3B335"/>
    <path fill-rule="evenodd" clip-rule="evenodd" d="M0 344v6.167A8.835 8.835 0 0 0 8.833 359h35.334A8.836 8.836 0 0 0 53 350.167V344H0z" fill="#E3B335"/>
    <path d="M8.833 353h35.334A8.836 8.836 0 0 0 53 344.167v-35.334A8.835 8.835 0 0 0 44.167 300H8.833A8.836 8.836 0 0 0 0 308.833v35.334A8.835 8.835 0 0 0 8.833 353zm19.246-26.804 2.838 11.346h-8.834l2.838-11.346.508-2.042a4.418 4.418 0 1 1 2.142 0l.508 2.042z" fill="#FFD056"/>
</svg>
